<svg height="512pt" viewBox="-48 0 512 512" width="512pt" xmlns="http://www.w3.org/2000/svg"><path d="m208 512c-114.6875 0-208-93.3125-208-208v-96c0-114.6875 93.3125-208 208-208s208 93.3125 208 208v96c0 114.6875-93.3125 208-208 208zm0 0" fill="#f9ddaa"/><path d="m208 0c-114.6875 0-208 93.3125-208 208v40.433594l3.199219.910156c25.410156 7.3125 51.25 11.007812 76.800781 11.007812 67.425781 0 130.785156-23.632812 181.472656-67.085937 37.007813 31.277344 81.96875 52.910156 129.375 61.886719l2.71875.511718 22.433594.335938v-48c0-114.6875-93.3125-208-208-208zm0 0" fill="#f7ce8a"/><path d="m80 228.351562c-22.542969 0-45.40625-3.28125-67.96875-9.757812l-11.886719-3.410156.09375-12.449219c2.867188-113.695313 94.113281-202.734375 207.761719-202.734375 114.6875 0 208 93.3125 208 208v16l-19.199219-.289062c-51.890625-9.824219-99.328125-36.09375-135.457031-74.621094-47.214844 50.589844-112.320312 79.261718-181.34375 79.261718zm0 0" fill="#c59969"/><path d="m288 64h32v32h-32zm0 0" fill="#fff"/><path d="m336 128h32v32h-32zm0 0" fill="#fff"/><path d="m208 480c-114.6875 0-208-93.3125-208-208v32c0 114.6875 93.3125 208 208 208s208-93.3125 208-208v-32c0 114.6875-93.3125 208-208 208zm0 0" fill="#f7ce8a"/><path d="m112 256h32v32h-32zm0 0" fill="#57565c"/><path d="m272 256h32v32h-32zm0 0" fill="#57565c"/><path d="m288 363.519531v100.480469c0 26.398438-21.601562 48-48 48s-48-21.601562-48-48v-33.601562c5.121094 1.121093 10.558594 1.601562 16 1.601562 40.160156 0 73.441406-29.601562 79.039062-68.160156zm0 0" fill="#e76e54"/><path d="m208 448c-52.945312 0-96-43.054688-96-96h32c0 35.296875 28.703125 64 64 64s64-28.703125 64-64h32c0 52.945312-43.054688 96-96 96zm0 0" fill="#57565c"/></svg>